# xmcd
#
# Track frame offsets:
#	150
#	8460
#	18407
#	28210
#	41495
#	54287
#	61647
#	71937
#	82160
#	91707
#	105870
#	117512
#	132000
#	138905
#	143712
#	149360
#	163065
#	169930
#	179457
#	187907
#
# Disc length: 2597 seconds
#
# Revision: 2
# Processed by: cddbd v1.5.1PL2 Copyright (c) Steve Scherf et al.
# Submitted via: CDmax 2.0
#
DISCID=080a2314
DTITLE=Walt Disney Company - More Silly Songs
DYEAR=1998
DGENRE=Children's
TTITLE0=I Scream, You Scream, We All Scream for Ice Cream
TTITLE1=Splish Splash
TTITLE2=On Top of Spaghetti
TTITLE3=The Name Game
TTITLE4=Polly Wolly Doodle
TTITLE5=The Spectrum Song
TTITLE6=The Purple People Eater
TTITLE7=Honk, Honk Waddling Song
TTITLE8=Let's All Roar Tonight
TTITLE9=Cupcakes and Lemonade
TTITLE10=Does Your Chewing Gum Lose Its Flavor (On the Bedpost Overnight)?
TTITLE11=Vacuum Cleaner Hoses
TTITLE12=The Good News Is ...
TTITLE13=Pop, Goes the Weasel
TTITLE14=It''s a Sunny, Sunny Day!
TTITLE15=I Know an Old Lady Who Swallowed a Fly
TTITLE16=Ukulele Song
TTITLE17=Goldilocks and the Three Bears
TTITLE18=I'm In Love With a Big Blue Frog
TTITLE19=Happiness
EXTD=LABEL =Walt Disney Records\nID =60632-7\nUPC =050086-063277\nCOPYRIGH
EXTD=T =1998\n*****\nNo Performer Information Available.
EXTT0=
EXTT1=
EXTT2=
EXTT3=
EXTT4=
EXTT5=
EXTT6=
EXTT7=
EXTT8=
EXTT9=
EXTT10=
EXTT11=
EXTT12=
EXTT13=
EXTT14=
EXTT15=
EXTT16=
EXTT17=
EXTT18=
EXTT19=
PLAYORDER=
